# xmcd
#
# Track frame offsets:
#	150
#	21662
#	45695
#	65410
#	87587
#	110420
#	129745
#	156565
#	174160
#	197852
#
# Disc length: 2910 seconds
#
# Revision: 1
# Processed by: cddbd v1.5.2PL0 Copyright (c) Steve Scherf et al.
# Submitted via: audiograbber 1.83.01
#
DISCID=910b5c0a
DTITLE=My Huyen - Kho Vi Yeu
DYEAR=1998
DGENRE=
TTITLE0=Thuo Chung Minh Yeu Nhau
TTITLE1=Kho Vi Yeu
TTITLE2=Ao Anh
TTITLE3=Ky Niem Tinh Yeu
TTITLE4=Duoc Tin Em Lay Chong
TTITLE5=Ngang Trai
TTITLE6=Moi Tinh Si
TTITLE7=Tat Can Bien Dong
TTITLE8=Cuon Theo Chieu Gio
TTITLE9=Kiep Cam Ca
EXTD=
EXTT0=
EXTT1=
EXTT2=
EXTT3=
EXTT4=
EXTT5=
EXTT6=
EXTT7=
EXTT8=
EXTT9=
PLAYORDER=
